HIERARCHY
ROOT Hips
{
  OFFSET 0 0 0
  CHANNELS 6 Xposition Yposition Zposition Zrotation Yrotation Xrotation
  JOINT LeftThigh
  {
    OFFSET 8.409438 0 -5.917753
    CHANNELS 3 Zrotation Yrotation Xrotation
    JOINT LeftLeg
    {
      OFFSET 0 0 -42.358652
      CHANNELS 3 Zrotation Yrotation Xrotation
      JOINT LeftFoot
      {
        OFFSET 0 0 -39.357303
        CHANNELS 3 Zrotation Yrotation Xrotation
      }
    }
  }
  JOINT RightThigh
  {
    OFFSET -8.409438 0 -5.917753
    CHANNELS 3 Zrotation Yrotation Xrotation
    JOINT RightLeg
    {
      OFFSET 0 0 -42.358652
      CHANNELS 3 Zrotation Yrotation Xrotation
      JOINT RightFoot
      {
        OFFSET 0 0 -39.357303
        CHANNELS 3 Zrotation Yrotation Xrotation
      }
    }
  }
  JOINT SpineLow
  {
    OFFSET 0 0 4.719101
    CHANNELS 3 Zrotation Yrotation Xrotation
    JOINT SpineMid
    {
      OFFSET 0 0 12.899191
      CHANNELS 3 Zrotation Yrotation Xrotation
      JOINT Chest
      {
        OFFSET 0 0 12.899191
        CHANNELS 3 Zrotation Yrotation Xrotation
        JOINT LeftShoulder
        {
          OFFSET 7.550562 1.41573 9.438202
          CHANNELS 3 Zrotation Yrotation Xrotation
          JOINT LeftArm
          {
            OFFSET 9.155056 0 4.247191
            CHANNELS 3 Zrotation Yrotation Xrotation
            JOINT LeftForearm
            {
              OFFSET 0 0 25.771955
              CHANNELS 3 Zrotation Yrotation Xrotation
              JOINT LeftHand
              {
                OFFSET 0 0 25.197169
                CHANNELS 3 Zrotation Yrotation Xrotation
              }
            }
          }
        }
        JOINT RightShoulder
        {
          OFFSET -7.550562 1.41573 9.438202
          CHANNELS 3 Zrotation Yrotation Xrotation
          JOINT RightArm
          {
            OFFSET -9.155056 0 4.247191
            CHANNELS 3 Zrotation Yrotation Xrotation
            JOINT RightForearm
            {
              OFFSET 0 0 -25.771955
              CHANNELS 3 Zrotation Yrotation Xrotation
              JOINT RightHand
              {
                OFFSET 0 0 -25.197169
                CHANNELS 3 Zrotation Yrotation Xrotation
              }
            }
          }
        }
        JOINT Neck
        {
          OFFSET 0 0 15.101124
          CHANNELS 3 Zrotation Yrotation Xrotation
          JOINT Head
          {
            OFFSET 0 0 11.325843
            CHANNELS 3 Zrotation Yrotation Xrotation
            End Site
            {
              OFFSET 0 0 14.157303
            }
          }
        }
      }
    }
  }
}
MOTION
Frames: 5
Frame Time: 0.0
0.0  89.887642  0.0  19.056055  -57.654413  -121.083919  44.031222  -44.500584  -22.973201  9.783758  40.994855  64.686586  13.542948  9.144356  6.718881  -22.42697  26.040046  -30.524982  32.419742  4.546929  60.723128  -3.71487  0.654649  2.944434  2.689079  1.911228  2.617248  7.560399  4.918484  7.369127  7.560399  4.918484  7.369127  -24.17333  11.34521  0.512523  -106.638689  49.853898  -107.350875  -40.421278  -8.077296  71.964243  41.81628  -11.287436  44.716935  -10.452237  -1.701746  12.160405  160.191334  28.692795  58.115027  -28.467763  -12.777263  -65.346413  87.956232  -1.18054  -19.268946  -2.813557  -3.617733  5.291501  -2.07829  -2.737961  3.950732  
0.0  89.887642  0.0  18.932162  -57.561109  -120.947761  43.605804  -44.667137  -22.648812  10.059352  40.563302  64.37959  13.458719  9.157357  6.754214  -22.206385  26.012124  -30.068622  32.643404  4.359969  60.351098  -3.945622  0.771229  2.898431  2.683136  1.884091  2.614335  7.54061  4.845546  7.357337  7.54061  4.845546  7.357337  -24.122982  11.449422  0.814381  -107.765779  49.68877  -108.390992  -40.442923  -8.19535  72.113471  42.21458  -11.571004  45.698823  -10.42773  -1.627978  12.276029  160.305079  28.627109  58.090671  -28.719648  -13.304399  -64.611781  88.246415  -0.946717  -19.41739  -2.919234  -3.480588  5.143385  -2.159609  -2.635291  3.839814  
0.0  89.887642  0.0  18.752094  -57.472943  -120.725161  43.147008  -44.833093  -22.308472  10.393646  40.206228  64.082533  13.374329  9.12366  6.733716  -21.677973  25.996379  -29.533153  32.671084  4.322225  60.026648  -4.132012  0.670127  3.084133  2.69611  1.859084  2.597734  7.571864  4.777865  7.309722  7.571863  4.777865  7.309721  -24.169897  11.558371  1.08768  -108.903169  49.713326  -109.366367  -40.424908  -8.475933  72.206135  42.611302  -11.963334  46.514518  -10.505829  -1.566181  12.428022  160.658863  28.42126  58.161475  -28.884419  -13.889637  -63.995506  88.320114  -0.738415  -19.398512  -3.096477  -3.39417  5.064392  -2.29371  -2.571564  3.780084  
0.0  89.887642  0.0  18.63281  -57.386592  -120.540362  42.691434  -44.926464  -21.992247  10.476051  40.008972  63.566129  13.548942  9.175012  6.83526  -20.883166  25.938887  -28.948929  32.350905  4.304798  60.179999  -4.512293  -0.029295  3.434001  2.669097  1.837748  2.581404  7.49431  4.724646  7.260571  7.494311  4.724646  7.260572  -23.870652  11.67001  1.324216  -110.131166  49.777927  -110.249226  -40.405718  -8.832268  72.208283  43.010104  -12.371318  47.177879  -10.314762  -1.522542  12.657308  160.963631  28.199482  58.311283  -29.374853  -14.641052  -63.149497  88.783825  -0.507383  -19.374445  -3.119944  -3.275311  4.817576  -2.313647  -2.481328  3.595573  
0.0  89.887642  0.0  18.486213  -57.293546  -120.368617  42.430427  -44.972969  -21.76733  10.575945  39.770293  63.241473  13.55555  9.134743  6.834649  -20.137565  25.879027  -28.473333  31.954778  4.242288  60.490015  -4.835088  0.05379  3.215643  2.679563  1.828127  2.57698  7.521458  4.697769  7.247995  7.521457  4.697769  7.247995  -23.862316  11.668732  1.50502  -111.191781  49.891117  -111.037352  -40.401375  -9.125281  72.179282  43.431863  -12.731346  47.774233  -10.390018  -1.526468  12.728456  161.205453  28.017299  58.386863  -29.490617  -15.226647  -62.525137  88.976525  -0.313665  -19.193712  -3.284539  -3.27164  4.750992  -2.437452  -2.479517  3.544798  
